<svg id="bear-svg" data-name="Capa 1" version="1.1"
    xmlns="http://www.w3.org/2000/svg" width="840.052" height="466.593" viewBox="0 0 840.052 466.593">
    <defs id="defs52">
        <style id="style50">

            /*width="840.052" height="466.593"*/
            .inner-star,
            .outer-star {
                fill: #002d58
            }

            .outer-star {
                opacity: .35
            }
        </style>
    </defs>
    <path fill="url(#Degradado_sin_nombre_6)" d="M-774.52-838.347h2500v2500h-2500z"
        id="path54" />
    <path
        d="M433.72 466.593h24.4a13.26 13.26 0 012.26-.67c13.95-1.64 27.9-3.33 41.88-4.76 4.31-.44 8.63-.52 13-.68 12.59-.48 21.68-7.21 27.74-17.52 9.73-16.54 18.94-33.44 27.25-50.73 13.64-28.41 28.73-55.66 53.37-76.24a228.8 228.8 0 0121.86-16.34 10.49 10.49 0 0114 2.47c4.77 6.22 9.49 12.58 15 18.07 20.9 20.69 42.27 40.89 63.16 61.59 10.09 10 19.36 20.83 29.29 31 4.3 4.41 1.42 8.69.12 12.57-.48 1.41-4.85 1.57-7.54 2.16a10.45 10.45 0 01-3 .19c-8.15-.61-13 3.64-16 10.54-3.53 7.9-1.13 12.62 7.52 13.75 19.2 2.51 38.39 1.8 57.51-1 6.19-.92 11.8-3.25 15.11-9.1 4.6-8.12 9.51-16.09 13.64-24.44 7.37-14.91 7.82-29.85.48-45.29-12.83-27-24.76-54.42-37.45-81.49-15.37-32.76-27.72-66.35-32.14-102.56-1.77-14.41-5.27-28.74-13.73-40.83a279.15 279.15 0 00-24.13-29.5 197.81 197.81 0 01-16.95-20.56c-15.89-22.57-35.22-42.57-57.89-58.37-1.19-.83-2.39-1.67-3.6-2.5-15.41-10.64-31.67-20.07-50.1-24.45-13.8-3.28-27.83-5.77-41.89-7.73-7.77-1.09-15.32-3.66-23.67-1.92-9.89 2-20.16 2.27-30.27 3.31-33.15 3.4-66.28 7-99.46 10.14-18.74 1.74-37.56 2.63-56.34 3.84-2.54.16-5.21.34-5.91-3.32-.17-.9-1.65-1.86-2.72-2.23-11.89-4.1-23.68-8.57-35.77-12-16.64-4.73-31.55-1-44.45 10.77-5.71 5.2-11.86 9.91-17.7 15-8.48 7.34-18 10.35-29.31 8.55a44.78 44.78 0 00-15.71.82c-15.5 3.19-30.93 6.8-46.33 10.47-12.5 3-24.44 3-35.28-5.11a11.58 11.58 0 00-3.31-1.51c-3.92-1.3-7-.07-8.79 3.62a17.55 17.55 0 00-1.64 5.41c-.73 6.73-3.75 12.33-8 17.44-6.29 7.63-12.61 15.24-18.77 23q-9.88 12.39-19.47 25c-3.27 4.32-5.16 9-3.71 14.78.57 2.28-.34 5.48-1.67 7.58a85.51 85.51 0 01-9.61 12.57c-9.85 10.61-20 21-30 31.45-3.09 3.25-6 6.67-9 10l.22 5.09c1.9 1.76 3.61 3.81 5.77 5.13 5.77 3.52 11.75 6.7 17.67 10 14 7.76 28.7 11.78 44.82 9.8 17.07-2.1 34.14-4.22 51.25-6 24.58-2.54 49.2-3.14 73.77.35 18.6 2.63 26.77 9.51 30.72 26.8 3.16 13.84 5.7 27.83 8.3 41.79 3.33 17.85-1 32.84-16.15 44.18-8 6-15.44 12.78-23 19.42-9.72 8.6-14 19.57-13.81 32.52.2 18.54 4.44 36.19 11.33 53.27 5.92 14.67 17.09 23.86 31.69 29a10.92 10.92 0 0014.58-8.32c2.55-12.34 4.53-24.75-5.51-35.19a2.46 2.46 0 01-.22-.34c-3.77-6.34-3.16-10 3.14-14a89.66 89.66 0 0114.78-7.59c17.39-6.78 34.84-13.42 52.4-19.73a71 71 0 0030-20.14 40.08 40.08 0 014.11-3.92c2.22-1.89 4.23-1.47 5.83.88a17.45 17.45 0 012 3.52c7.41 19.43 11.54 39.47 10.92 60.36a11.93 11.93 0 01-8.57 11.05 178.8 178.8 0 01-18.91 4.56c-9.18 1.63-12.71 6.76-12.65 17.33a12.78 12.78 0 0013.3 12.54c20.79-.74 40.66-5.83 60.18-12.77 18.55-6.59 30.24-19.41 35.77-38 8.6-28.91 10.55-58.13 4.65-87.88-2.17-11-3.27-22.21-4.41-33.37-.27-2.69 1.27-5.56 2-8.35 2.89.76 5.84 1.36 8.65 2.34 2.06.72 3.75 2.6 5.64 3.56a24.18 24.18 0 016.31 4.24 27.46 27.46 0 0021.14 8.57 84.93 84.93 0 0111.39.41 4.92 4.92 0 014.26 6.24q-2.52 10.1-5.12 20.17c-7 27.48-16 54.53-16.44 83.38-.17 11.07-6 19.41-16.45 24.12-7.89 3.54-15.71 7.26-23.5 11-3.23 1.58-6.26 3.72-6 7.87.26 4.15 3.51 6.27 7 7.59 3.49 1.32 7.26 2.23 10.87 3.28z"
        id="path56" fill="#ffffff" />
    <path d="M582.6 102.793l42.9 68.37-136.58 74.29-25.06-71.18zm-118.74 71.48l-82.73-1.83-71.69-5.81-78.88-36"
        id="path58" fill="none" stroke="#002d58" stroke-miterlimit="10" stroke-width="4" />
    <circle class="outer-star" cx="308.63" cy="166.663" r="11.17" id="circle60" />
    <circle class="inner-star" cx="308.63" cy="166.663" r="7.16" id="circle62" />
    <circle class="outer-star" cx="463.91" cy="175.163" r="14.31" id="circle64" />
    <circle class="outer-star" cx="381.16" cy="173.083" r="14.31" id="circle66" />
    <circle class="inner-star" cx="381.16" cy="173.083" r="8.67" id="circle68" />
    <circle class="inner-star" cx="463.91" cy="175.163" r="8.67" id="circle70" />
    <circle class="outer-star" cx="230.56" cy="131.273" r="14.31" id="circle72" />
    <circle class="outer-star" cx="488.94" cy="246.093" r="14.31" id="circle74" />
    <circle class="outer-star" cx="624.49" cy="170.643" r="14.31" id="circle76" />
    <circle class="outer-star" cx="583.38" cy="102.573" r="14.31" id="circle78" />
    <circle class="inner-star" cx="583.38" cy="102.573" r="8.67" id="circle80" />
    <circle class="inner-star" cx="624.49" cy="170.643" r="8.67" id="circle82" />
    <circle class="inner-star" cx="488.94" cy="246.093" r="8.67" id="circle84" />
    <circle class="inner-star" cx="230.58" cy="131.273" r="8.67" id="circle86" />
</svg>